<svg width="188" height="61" viewBox="0 0 188 61" fill="none" xmlns="http://www.w3.org/2000/svg">
<g filter="url(#filter0_d_245_2981)">
<path d="M22.0526 6.45786H42.0661V11.8824H46.0193V19.1783H42.9925C42.9925 19.1783 48.7984 24.0562 42.9925 28.6865C42.9925 28.6865 40.6444 30.23 37.8042 29.9824H46.4535V37.9471H39.3513C39.3513 37.9471 44.4721 39.9858 44.6908 44.6772C44.6908 44.6772 45.8359 51.2239 39.6601 53.3236C39.6601 53.3236 31.1362 56.5359 23.2298 52.5197C23.2298 52.5197 17.485 49.928 19.5855 43.4456C19.5855 43.4456 20.0808 40.0436 24.2173 38.3105H17.7295V30.23H26.3145C26.3145 30.23 21.6183 29.6737 20.0744 26.9566C20.0744 26.9566 17.1087 22.7572 21.3707 18.7442H18.0383V11.8792H21.9915L22.0526 6.45465V6.45786Z" fill="#E6F9FF"/>
<path d="M56.9424 7.27777C56.9424 7.27777 62.6936 7.02696 64.6911 11.5737C64.6911 11.5737 65.3923 12.8727 66.042 16.3712V6.95622H75.4602V33.1528H74.3505L75.4602 33.9277V53.8316H65.521V41.7285H50.3612V33.1528H65.8619V25.8215C65.8619 25.8215 65.6464 29.4679 61.9763 31.7251C61.3973 32.082 60.7604 32.3264 60.0978 32.4711C58.1807 32.8859 53.7419 33.5001 50.8952 31.1367C50.8952 31.1367 47.2701 28.0048 47.3409 20.4774C47.3409 20.4774 47.2637 12.8502 50.7762 9.56077C50.7762 9.56077 53.0149 7.30028 56.9424 7.28099V7.27777Z" fill="#E6F9FF"/>
<path d="M79.0408 6.99482H104.854V15.1461H98.9354C98.9354 15.1461 101.554 17.3583 105.88 18.9211V20.7603L101.634 24.1752H106.176V32.4261H103.979V45.9955H105.089V53.8316H79.7067V39.4166H80.9676L79.6841 38.1336V32.2332H77.8057V24.2266H82.2992L77.9601 20.7732V18.2008C77.9601 18.2008 80.8003 17.9307 85.2553 15.0142H78.8028V6.99482H79.0344H79.0408Z" fill="#E6F9FF"/>
<path d="M116.675 7.3228C116.675 7.3228 111.355 6.68934 108.672 12.011C108.672 12.011 104.774 18.7378 108.672 27.6704C108.672 27.6704 111.294 31.9213 116.672 31.5869C116.672 31.5869 120.808 31.7316 123.053 29.4389C123.053 29.4389 125.157 27.3842 125.73 24.8054H126.209V31.6062H127.116L126.235 32.4872V36.3651H120.474V31.4775H111.368V53.8316H135.724V32.574L134.62 31.4711H135.707V7.27778H125.99V15.3776H125.546C125.546 15.3776 125.344 7.27778 116.678 7.3228H116.675Z" fill="#E6F9FF"/>
<path d="M139.709 7.24561H149.117V11.3936H154.659V7.24561H164.322V27.5353H156.573V28.5032H165.744V36.4262H157.059L156.194 36.439L157.207 36.6609C157.21 38.7477 158.066 40.005 158.619 40.9825C158.619 40.9825 160.533 44.3073 165.519 47.0308L165.744 48.928L159.237 53.6483C159.237 53.6483 154.466 52.2624 151.871 47.8862C151.871 47.8862 151.153 51.166 144.63 53.6483L137.985 48.9698L138.178 46.735C138.178 46.735 143.385 44.7639 145.885 39.3812C145.885 39.3812 146.245 38.558 146.267 36.6577L147.406 36.3747L146.168 36.3683H137.686V28.4164H147.258V27.4678H139.689L139.706 7.24561H139.709Z" fill="#E6F9FF"/>
</g>
<path d="M19.1191 31.4132H28.7689V29.0981C23.172 28.664 20.7113 26.8312 20.7113 23.9855V23.9372C20.7113 20.561 24.137 17.995 32.0498 17.995C40.0108 17.9468 43.4365 20.561 43.4365 23.9372V23.9855C43.4365 26.8312 40.9758 28.664 35.3307 29.1463V31.4132H44.9322V36.5741H19.1191V31.4132ZM19.3121 13.3293H44.6909V17.2362H19.3121V13.3293ZM20.8561 45.69V45.5453C20.8561 40.915 24.8125 38.3105 32.0498 38.3105C39.2871 38.3105 43.1952 40.915 43.1952 45.5453V45.69C43.1952 50.3203 39.2388 52.9731 32.0498 52.9731C24.8607 52.9731 20.8561 50.3203 20.8561 45.69ZM23.1238 8.02378H40.7828V11.8824H23.1238V8.02378ZM36.3439 23.9887V23.9405C36.3439 22.8311 34.9447 22.4452 32.0498 22.4452C29.1549 22.4452 27.8039 22.8311 27.8039 23.8922V23.9887C27.8039 25.0498 29.2031 25.4839 32.0498 25.4839C34.8965 25.4839 36.3439 25.098 36.3439 23.9887ZM35.8614 45.69V45.5453C35.8614 44.0501 34.6552 43.2302 32.0498 43.2302C29.4444 43.2302 28.1899 44.0501 28.1899 45.5453V45.69C28.1899 47.2334 29.3961 48.0534 32.0498 48.0534C34.7035 48.0534 35.8614 47.2334 35.8614 45.69Z" fill="url(#paint0_linear_245_2981)"/>
<path d="M48.7441 20.8536V19.8407C48.7441 12.22 51.7838 8.89196 56.9464 8.89196C62.109 8.89196 65.1487 12.22 65.1487 19.8407V20.8536C65.1487 28.3778 62.1573 31.7541 56.9464 31.7541C51.7356 31.7541 48.7441 28.3778 48.7441 20.8536ZM74.1197 52.4908H66.8824V40.3362H51.9253V34.4036H74.1197V52.4908ZM59.0179 20.8536V19.7925C59.0179 16.1268 58.2942 14.8245 56.9432 14.8245C55.5922 14.8245 54.9168 16.1268 54.9168 19.7925V20.8536C54.9168 24.3745 55.6405 25.8215 56.9432 25.8215C58.2459 25.8215 59.0179 24.3745 59.0179 20.8536ZM67.2202 8.36141H74.1197V32.2364H67.2202V8.36141Z" fill="url(#paint1_linear_245_2981)"/>
<path d="M79.041 25.4839H88.6425V22.8311H95.2043V25.4839H104.854V30.8377H79.041V25.4839ZM104.565 19.8407L100.126 23.3617C96.3623 22.4935 92.3094 19.5031 92.0682 17.5255H91.7304C91.4892 19.5031 87.4363 22.4935 83.6729 23.3617L79.234 19.8407V19.6478C82.0807 18.7796 87.4845 15.8856 87.4845 14.1493V13.7152H80.4402V8.69903H103.455V13.7152H96.3623V14.1493C96.3623 15.8856 101.67 18.7796 104.565 19.6478V19.8407ZM81.164 40.5291H95.6386L95.6868 37.6834H80.971V33.1496H102.683L102.586 44.8701H88.1118V47.8605H103.841V52.4908H81.164V40.5291Z" fill="url(#paint2_linear_245_2981)"/>
<path d="M108.473 19.9854V19.1172C108.473 12.0753 111.512 8.66045 116.675 8.66045C121.21 8.66045 124.105 11.3036 124.781 16.5609H127.386V8.36141H134.189V30.7894H127.386V22.9276H124.732C123.96 27.8955 121.114 30.2106 116.675 30.2106C111.512 30.2106 108.473 26.9791 108.473 19.9854ZM112.574 32.5708H119.329V37.394H127.386V32.5708H134.189V52.4908H112.574V32.5708ZM118.75 19.9854V19.1172C118.75 15.741 118.026 14.5351 116.675 14.5351C115.324 14.5351 114.6 15.741 114.6 19.1172V19.9854C114.6 23.217 115.324 24.5675 116.675 24.5675C118.026 24.5675 118.75 23.217 118.75 19.9854ZM127.386 46.8958V42.0244H119.329V46.8476L127.386 46.8958Z" fill="url(#paint3_linear_245_2981)"/>
<path d="M140.896 8.55435H147.892V12.5576H155.949V8.55435H162.897V26.4968H155.226V29.5354H164.779V35.1304H138.966V29.5354H148.519V26.4968H140.896V8.55435ZM164.248 48.1949L159.134 51.9088C155.226 50.2689 152.138 46.6515 151.993 43.854H151.703C151.607 46.6032 148.519 50.2206 144.804 51.9088L139.497 48.1949V48.002C143.019 46.3621 147.602 41.3941 147.602 37.632V37.0532H155.949V37.5355C155.949 41.3459 160.581 46.2656 164.248 48.002V48.1949ZM155.949 21.143V17.2362L147.892 17.3326V21.143H155.949Z" fill="url(#paint4_linear_245_2981)"/>
<defs>
<filter id="filter0_d_245_2981" x="17.7295" y="6.45465" width="151.015" height="51.0852" filterUnits="userSpaceOnUse" color-interpolation-filters="sRGB">
<feFlood flood-opacity="0" result="BackgroundImageFix"/>
<feColorMatrix in="SourceAlpha" type="matrix" values="0 0 0 0 0 0 0 0 0 0 0 0 0 0 0 0 0 0 127 0" result="hardAlpha"/>
<feOffset dx="2" dy="2"/>
<feGaussianBlur stdDeviation="0.5"/>
<feComposite in2="hardAlpha" operator="out"/>
<feColorMatrix type="matrix" values="0 0 0 0 0.0559032 0 0 0 0 0.0552684 0 0 0 0 0.128906 0 0 0 0.7 0"/>
<feBlend mode="normal" in2="BackgroundImageFix" result="effect1_dropShadow_245_2981"/>
<feBlend mode="normal" in="SourceGraphic" in2="effect1_dropShadow_245_2981" result="shape"/>
</filter>
<linearGradient id="paint0_linear_245_2981" x1="32.024" y1="8.02378" x2="32.024" y2="52.9731" gradientUnits="userSpaceOnUse">
<stop stop-color="#009BC1"/>
<stop offset="0.61" stop-color="#020079"/>
</linearGradient>
<linearGradient id="paint1_linear_245_2981" x1="61.4303" y1="8.36141" x2="61.4303" y2="52.4908" gradientUnits="userSpaceOnUse">
<stop stop-color="#0198C0"/>
<stop offset="0.6" stop-color="#0B0A7E"/>
</linearGradient>
<linearGradient id="paint2_linear_245_2981" x1="91.9491" y1="8.69903" x2="91.9491" y2="52.4908" gradientUnits="userSpaceOnUse">
<stop stop-color="#0198C0"/>
<stop offset="0.5" stop-color="#0E0D7F"/>
</linearGradient>
<linearGradient id="paint3_linear_245_2981" x1="121.333" y1="8.36141" x2="121.333" y2="52.4908" gradientUnits="userSpaceOnUse">
<stop stop-color="#0096BE"/>
<stop offset="0.53" stop-color="#090A7F"/>
<stop offset="1" stop-color="#09067C"/>
</linearGradient>
<linearGradient id="paint4_linear_245_2981" x1="151.871" y1="8.55435" x2="151.871" y2="51.9088" gradientUnits="userSpaceOnUse">
<stop stop-color="#008EBA"/>
<stop offset="0.48" stop-color="#151483"/>
</linearGradient>
</defs>
</svg>
