<svg width="78" height="131" viewBox="0 0 78 131" fill="none" xmlns="http://www.w3.org/2000/svg">
<path d="M0.432739 50.6494H28.935V42.7745H48.4139V50.6494H77.0593V66.5422H0.432739V50.6494ZM76.1999 33.8975L63.023 44.3495C51.8513 41.7723 39.8202 32.8952 39.1041 27.0249H38.1015C37.3854 32.8952 25.3543 41.7723 14.1825 44.3495L1.00565 33.8975V33.3247C9.45606 30.7475 25.4975 22.1568 25.4975 17.0024V15.7138H4.58633V0.823181H72.9057V15.7138H51.8513V17.0024C51.8513 22.1568 67.6063 30.7475 76.1999 33.3247V33.8975ZM6.73474 95.3116H49.7029L49.8461 86.864H6.16183V73.4053H70.6141L70.3276 108.198H27.3595V117.075H74.0515V130.82H6.73474V95.3116Z" fill="url(#paint0_linear_184_207)"/>
<defs>
<linearGradient id="paint0_linear_184_207" x1="38.7508" y1="0.823181" x2="38.7508" y2="130.82" gradientUnits="userSpaceOnUse">
<stop stop-color="#0198C0"/>
<stop offset="0.5" stop-color="#0E0D7F"/>
</linearGradient>
</defs>
</svg>
