<svg width="84" height="140" viewBox="0 0 84 140" fill="none" xmlns="http://www.w3.org/2000/svg">
<path d="M28.8346 1.60406C28.8346 1.60406 45.9073 0.859531 51.8369 14.3565C51.8369 14.3565 53.9184 18.2128 55.8472 28.598V0.649536H83.8052V78.4147H80.511L83.8052 80.7151V139.8H54.3004V103.872H9.2984V78.4147H55.3125V56.6515C55.3125 56.6515 54.6728 67.4758 43.778 74.1766C42.0592 75.2361 40.1686 75.9615 38.2017 76.3911C32.5108 77.6224 19.3339 79.4455 10.8835 72.4298C10.8835 72.4298 0.122315 63.1327 0.332382 40.7873C0.332382 40.7873 0.103218 18.146 10.5302 8.38119C10.5302 8.38119 17.1759 1.67088 28.8346 1.61361V1.60406Z" fill="#E6F9FF"/>
</svg>
