<svg width="86" height="143" viewBox="0 0 86 143" fill="none" xmlns="http://www.w3.org/2000/svg">
<path d="M13.2622 0.17019H72.6729V16.273H84.408V37.9312H75.4228C75.4228 37.9312 92.6578 52.4113 75.4228 66.1565C75.4228 66.1565 68.4524 70.7382 60.0211 70.0032H85.697V93.6468H64.614C64.614 93.6468 79.8151 99.6985 80.4644 113.625C80.4644 113.625 83.8637 133.059 65.5306 139.292C65.5306 139.292 40.2271 148.828 16.757 136.906C16.757 136.906 -0.296608 129.212 5.93855 109.969C5.93855 109.969 7.40902 99.8703 19.6884 94.7254H0.429077V70.7382H25.914C25.914 70.7382 11.9732 69.0869 7.38992 61.0211C7.38992 61.0211 -1.41378 48.555 11.238 36.6426H1.34573V16.2635H13.0808L13.2622 0.160645V0.17019Z" fill="#E6F9FF"/>
</svg>
