<svg width="78" height="135" viewBox="0 0 78 135" fill="none" xmlns="http://www.w3.org/2000/svg">
<path d="M0.554077 70.2509H29.1995V63.3783C12.5852 62.0897 5.28057 56.6489 5.28057 48.2013V48.0582C5.28057 38.0356 15.4497 30.4185 38.939 30.4185C62.5714 30.2754 72.7406 38.0356 72.7406 48.0582V48.2013C72.7406 56.6489 65.436 62.0897 48.6784 63.5215V70.2509H77.1806V85.571H0.554077V70.2509ZM1.12699 16.5684H76.4645V28.1659H1.12699V16.5684ZM5.71026 112.632V112.202C5.71026 98.4571 17.4549 90.7254 38.939 90.7254C60.423 90.7254 72.0244 98.4571 72.0244 112.202V112.632C72.0244 126.377 60.2798 134.252 38.939 134.252C17.5981 134.252 5.71026 126.377 5.71026 112.632ZM12.4419 0.818726H64.8631V12.273H12.4419V0.818726ZM51.6862 48.2109V48.0677C51.6862 44.7746 47.5326 43.6292 38.939 43.6292C30.3453 43.6292 26.335 44.7746 26.335 47.9245V48.2109C26.335 51.3608 30.4886 52.6494 38.939 52.6494C47.3894 52.6494 51.6862 51.504 51.6862 48.2109ZM50.2539 112.632V112.202C50.2539 107.764 46.6732 105.33 38.939 105.33C31.2047 105.33 27.4808 107.764 27.4808 112.202V112.632C27.4808 117.213 31.0615 119.648 38.939 119.648C46.8165 119.648 50.2539 117.213 50.2539 112.632Z" fill="url(#paint0_linear_184_205)"/>
<defs>
<linearGradient id="paint0_linear_184_205" x1="38.8626" y1="0.818726" x2="38.8626" y2="134.252" gradientUnits="userSpaceOnUse">
<stop stop-color="#009BC1"/>
<stop offset="0.61" stop-color="#020079"/>
</linearGradient>
</defs>
</svg>
