<svg width="76" height="132" viewBox="0 0 76 132" fill="none" xmlns="http://www.w3.org/2000/svg">
<path d="M0.495483 37.9043V34.8975C0.495483 12.2753 9.5188 2.39595 24.8441 2.39595C40.1694 2.39595 49.1927 12.2753 49.1927 34.8975V37.9043C49.1927 60.2401 40.3126 70.2627 24.8441 70.2627C9.37557 70.2627 0.495483 60.2401 0.495483 37.9043ZM75.8234 131.82H54.3394V95.7389H9.93893V78.1279H75.8234V131.82ZM30.9933 37.9043V34.7543C30.9933 23.8728 28.8449 20.0069 24.8346 20.0069C20.8242 20.0069 18.819 23.8728 18.819 34.7543V37.9043C18.819 48.3563 20.9674 52.6517 24.8346 52.6517C28.7017 52.6517 30.9933 48.3563 30.9933 37.9043ZM55.342 0.820984H75.8234V71.6944H55.342V0.820984Z" fill="url(#paint0_linear_184_206)"/>
<defs>
<linearGradient id="paint0_linear_184_206" x1="38.1547" y1="0.820984" x2="38.1547" y2="131.82" gradientUnits="userSpaceOnUse">
<stop stop-color="#0198C0"/>
<stop offset="0.6" stop-color="#0B0A7E"/>
</linearGradient>
</defs>
</svg>
