<svg width="84" height="139" viewBox="0 0 84 139" fill="none" xmlns="http://www.w3.org/2000/svg">
<path d="M6.52651 0.508667H34.4558V12.822H50.9079V0.508667H79.5915V60.7392H56.5892V63.6123H83.8119V87.1318H58.031L55.4625 87.17L58.4702 87.8286C58.4798 94.0235 61.0197 97.7557 62.662 100.657C62.662 100.657 68.3434 110.527 83.1435 118.612L83.8119 124.244L64.4953 138.256C64.4953 138.256 50.3349 134.142 42.6293 121.151C42.6293 121.151 40.5 130.887 21.1357 138.256L1.40851 124.368L1.98142 117.734C1.98142 117.734 17.4404 111.883 24.8596 95.9039C24.8596 95.9039 25.929 93.4603 25.9958 87.819L29.376 86.9791L25.6998 86.96H0.520508V63.3546H28.9368V60.5387H6.46922L6.51695 0.508667H6.52651Z" fill="#E6F9FF"/>
</svg>
