<svg width="78" height="132" viewBox="0 0 78 132" fill="none" xmlns="http://www.w3.org/2000/svg">
<path d="M0.80127 35.3271V32.7498C0.80127 11.8457 9.82458 1.70869 25.1499 1.70869C38.6133 1.70869 47.2069 9.55488 49.2121 25.1614H56.9464V0.820984H77.1414V67.3991H56.9464V44.061H49.0689C46.7772 58.8084 38.3268 65.6809 25.1499 65.6809C9.82458 65.6809 0.80127 56.088 0.80127 35.3271ZM12.9756 72.6871H33.0274V87.005H56.9464V72.6871H77.1414V131.82H12.9756V72.6871ZM31.3087 35.3271V32.7498C31.3087 22.7273 29.1603 19.1479 25.1499 19.1479C21.1395 19.1479 18.9911 22.7273 18.9911 32.7498V35.3271C18.9911 44.92 21.1395 48.929 25.1499 48.929C29.1603 48.929 31.3087 44.92 31.3087 35.3271ZM56.9464 115.211V100.75H33.0274V115.068L56.9464 115.211Z" fill="url(#paint0_linear_184_208)"/>
<defs>
<linearGradient id="paint0_linear_184_208" x1="38.9761" y1="0.820984" x2="38.9761" y2="131.82" gradientUnits="userSpaceOnUse">
<stop stop-color="#0096BE"/>
<stop offset="0.53" stop-color="#090A7F"/>
<stop offset="1" stop-color="#09067C"/>
</linearGradient>
</defs>
</svg>
