<svg width="86" height="139" viewBox="0 0 86 139" fill="none" xmlns="http://www.w3.org/2000/svg">
<path d="M29.1499 0.73776C29.1499 0.73776 13.3568 -1.14265 5.39333 14.6547C5.39333 14.6547 -6.17943 34.6234 5.39333 61.1401C5.39333 61.1401 13.1753 73.7589 29.1404 72.7662C29.1404 72.7662 41.4197 73.1957 48.0846 66.39C48.0846 66.39 54.3293 60.2906 56.0289 52.6353H57.4516V72.8235H60.1443L57.528 75.4389V86.9504H40.4267V72.4417H13.3949V138.8H85.696V75.6966L82.4209 72.4226H85.6483V0.604126H56.8023V24.6486H55.4846C55.4846 24.6486 54.8831 0.604126 29.1595 0.73776H29.1499Z" fill="#E6F9FF"/>
</svg>
