<svg width="77" height="130" viewBox="0 0 77 130" fill="none" xmlns="http://www.w3.org/2000/svg">
<path d="M6.05001 0.393738H26.818V12.2776H50.7369V0.393738H71.3616V53.6562H48.5885V62.6765H76.9475V79.2852H0.320923V62.6765H28.6799V53.6562H6.05001V0.393738ZM75.372 118.068L60.1899 129.092C48.5885 124.224 39.4219 113.486 38.9923 105.181H38.1329C37.8465 113.343 28.6799 124.081 17.6514 129.092L1.89642 118.068V117.495C12.352 112.627 25.9586 97.8793 25.9586 86.7114V84.9933H50.7369V86.4251C50.7369 97.7362 64.4867 112.34 75.372 117.495V118.068ZM50.7369 37.7634V26.1659L26.818 26.4523V37.7634H50.7369Z" fill="url(#paint0_linear_184_209)"/>
<defs>
<linearGradient id="paint0_linear_184_209" x1="38.6294" y1="0.393738" x2="38.6294" y2="129.092" gradientUnits="userSpaceOnUse">
<stop stop-color="#008EBA"/>
<stop offset="0.48" stop-color="#151483"/>
</linearGradient>
</defs>
</svg>
